<svg width="105" height="20" viewBox="0 0 105 20" fill="none" xmlns="http://www.w3.org/2000/svg">
<path d="M74.6517 4.7124V0H54.373V19.9964H74.6517V15.1804H61.2076V11.8364H71.7471V7.81708H61.2076V4.7124H74.6517Z" fill="#DC3228"/>
<path d="M38.1103 13.2762H37.5565L31.7402 0H23.8838L33.0656 20L42.051 19.975C42.1653 19.975 42.2761 19.9 42.3297 19.7821L50.772 0H43.5622L38.1103 13.2762Z" fill="#DC3228"/>
<path d="M96.5553 0.0144043V11.3649L85.7728 0.0215497H78.2559V19.9858H85.1333V7.86721L96.7518 19.9894H103.433V0.0144043H96.5553Z" fill="#DC3228"/>
<path d="M0 0V19.9964H20.2787V15.1804H6.83458V11.8364H17.3741V7.81708H6.83458V4.7124H20.2787V0H0Z" fill="#DC3228"/>
</svg>
